# xmcd
#
# Track frame offsets: 
#        150
#        18798
#        29601
#        46971
#        63211
#        78946
#        100715
#        114821
#        130176
#        147842
#        166351
#        185049
#        202538
#
# Disc length: 2949 seconds
#
# Revision: 5
# Processed by: cddbd v1.5.2PL0 Copyright (c) Steve Scherf et al.
# Submitted via: ExactAudioCopy v0.99pb5
#
DISCID=9b0b830d
DTITLE=Bushwackers Band - Dance Album
DYEAR=1900
DGENRE=
TTITLE0=Waves of Bondi
TTITLE1=Flying Pieman
TTITLE2=Road to Gundagai
TTITLE3=Heel and Toe Polka
TTITLE4=The Pride of Erin
TTITLE5=The Drongo
TTITLE6=The Madman's Woodyard
TTITLE7=The Barn Dance
TTITLE8=Stockyards
TTITLE9=Queensland Backstep
TTITLE10=The Kangaroo Hop
TTITLE11=Strip the Willow
TTITLE12=Waltz Country Dance
EXTD=
EXTT0=
EXTT1=
EXTT2=
EXTT3=
EXTT4=
EXTT5=
EXTT6=
EXTT7=
EXTT8=
EXTT9=
EXTT10=
EXTT11=
EXTT12=
PLAYORDER=
